# File created by Blade
# Date/Time:  Tue Jan 27 17:01:45 2015
#---------------------------------------------------------
:version 1.10
:name HOM
:units
  mass 1.0
  length 1.000000
  angle deg
:documentation
     Acclaim Skeleton File
:root
   axis xyz
   order TX TY TZ RX RY RZ
   position 0.000000 0.000000 0.000000
   orientation 0 0 0
:bonedata
   begin
      id 1
      name Spine_dum
      direction 0.000000 1.000000 0.000000
      length 7.539951
      axis 0.0 0.0 0.0 xyz
   end
   begin
      id 2
      name LeftUpLeg_dum
      direction 1.000000 0.000000 0.000000
      length 3.345476
      axis 0.0 0.0 0.0 xyz
   end
   begin
      id 3
      name RightUpLeg_dum
      direction -1.000000 0.000000 0.000000
      length 3.345476
      axis 0.0 0.0 0.0 xyz
   end
   begin
      id 4
      name Spine
      direction 0.000000 1.000000 0.000000
      length 0.000000
      axis 0.0 0.0 0.0 xyz
      dof rx ry rz
   end
   begin
      id 5
      name Spine_dum1
      direction 0.000000 1.000000 0.000000
      length 15.093809
      axis 0.0 0.0 0.0 xyz
   end
   begin
      id 6
      name Spine_dum2
      direction 0.000000 1.000000 0.000000
      length 9.738928
      axis 0.0 0.0 0.0 xyz
   end
   begin
      id 7
      name Spine_dum3
      direction 0.000000 1.000000 0.000000
      length 9.738928
      axis 0.0 0.0 0.0 xyz
   end
   begin
      id 8
      name Head
      direction 0.000000 1.000000 0.000000
      length 4.527550
      axis 0.0 0.0 0.0 xyz
      dof rx ry rz
   end
   begin
      id 9
      name LeftShoulder
      direction 1.000000 0.000000 0.000000
      length 7.084015
      axis 0.0 0.0 -90.0 xyz
      dof rx ry rz
   end
   begin
      id 10
      name LeftArm
      direction 1.000000 0.000000 0.000000
      length 10.259319
      axis 0.0 0.0 -90.0 xyz
      dof rx ry rz
   end
   begin
      id 11
      name LeftForeArm
      direction 1.000000 0.000000 0.000000
      length 9.896984
      axis 0.0 0.0 -90.0 xyz
      dof ry rz rx
   end
   begin
      id 12
      name LeftHand
      direction 0.000000 0.000000 0.000000
      length 0.000000
      axis 0.0 0.0 -90.0 xyz
      dof rx ry rz
   end
   begin
      id 13
      name LeftHand_dum1
      direction 0.000000 0.000000 0.000000
      length 0.000000
      axis 0.0 0.0 -90.0 xyz
   end
   begin
      id 14
      name LeftHand_dum2
      direction 1.000000 0.000000 0.000000
      length 3.937000
      axis 0.0 0.0 -90.0 xyz
   end
   begin
      id 15
      name LeftHandThumb1
      direction 0.000000 0.000000 1.000000
      length 3.937000
      axis 0.0 0.0 -90.0 xyz
      dof rx rz ry
   end
   begin
      id 16
      name RightShoulder
      direction -1.000000 0.000000 0.000000
      length 7.084015
      axis 0.0 0.0 90.0 xyz
      dof rx ry rz
   end
   begin
      id 17
      name RightArm
      direction -1.000000 0.000000 0.000000
      length 10.259319
      axis 0.0 0.0 90.0 xyz
      dof rx ry rz
   end
   begin
      id 18
      name RightForeArm
      direction -1.000000 0.000000 0.000000
      length 9.896984
      axis 0.0 0.0 90.0 xyz
      dof ry rz rx
   end
   begin
      id 19
      name RightHand
      direction 0.000000 0.000000 0.000000
      length 0.000000
      axis 0.0 0.0 90.0 xyz
      dof rx ry rz
   end
   begin
      id 20
      name RightHand_dum1
      direction 0.000000 0.000000 0.000000
      length 0.000000
      axis 0.0 0.0 90.0 xyz
   end
   begin
      id 21
      name RightHand_dum2
      direction -1.000000 0.000000 0.000000
      length 3.937000
      axis 0.0 0.0 90.0 xyz
   end
   begin
      id 22
      name RightHandThumb1
      direction 0.000000 0.000000 1.000000
      length 3.937000
      axis 0.0 0.0 90.0 xyz
      dof rx rz ry
   end
   begin
      id 23
      name LeftUpLeg
      direction 0.000000 -1.000000 0.000000
      length 19.114733
      axis 0.0 0.0 0.0 xyz
      dof rx ry rz
   end
   begin
      id 24
      name LeftLeg
      direction 0.000000 -1.000000 0.000000
      length 16.045604
      axis 0.0 0.0 0.0 xyz
      dof rx ry rz
   end
   begin
      id 25
      name LeftFoot
      direction 0.000000 -0.258819 0.965926
      length 5.543155
      axis 15.0 0.0 0.0 xyz
      dof rx ry rz
   end
   begin
      id 26
      name LeftToeBase
      direction 0.000000 0.000000 1.000000
      length 2.952750
      axis 0.0 0.0 0.0 xyz
      dof rx ry rz
   end
   begin
      id 27
      name RightUpLeg
      direction 0.000000 -1.000000 0.000000
      length 19.114733
      axis 0.0 0.0 0.0 xyz
      dof rx ry rz
   end
   begin
      id 28
      name RightLeg
      direction 0.000000 -1.000000 0.000000
      length 16.045604
      axis 0.0 0.0 0.0 xyz
      dof rx ry rz
   end
   begin
      id 29
      name RightFoot
      direction 0.000000 -0.258819 0.965926
      length 5.543155
      axis 15.0 0.0 0.0 xyz
      dof rx ry rz
   end
   begin
      id 30
      name RightToeBase
      direction 0.000000 0.000000 1.000000
      length 2.952750
      axis 0.0 0.0 0.0 xyz
      dof rx ry rz
   end
:hierarchy
   begin
      root Spine_dum LeftUpLeg_dum RightUpLeg_dum
      Spine_dum Spine
      LeftUpLeg_dum LeftUpLeg
      RightUpLeg_dum RightUpLeg
      Spine Spine_dum1 Spine_dum2 Spine_dum3
      Spine_dum1 Head
      Spine_dum2 LeftShoulder
      Spine_dum3 RightShoulder
      LeftShoulder LeftArm
      LeftArm LeftForeArm
      LeftForeArm LeftHand
      LeftHand LeftHand_dum1 LeftHand_dum2
      LeftHand_dum1 LeftHandThumb1
      RightShoulder RightArm
      RightArm RightForeArm
      RightForeArm RightHand
      RightHand RightHand_dum1 RightHand_dum2
      RightHand_dum1 RightHandThumb1
      LeftUpLeg LeftLeg
      LeftLeg LeftFoot
      LeftFoot LeftToeBase
      RightUpLeg RightLeg
      RightLeg RightFoot
      RightFoot RightToeBase
   end

# File created by Blade
# Date/Time:  Tue Jan 27 17:01:38 2015
# Frame Rate: 120.000 fps
#------------------------------------------------------
:FULLY-SPECIFIED
:DEGREES
1329
root -0.722967 36.933037 4.248891 7.495567 -0.615161 -0.588897
Spine -3.676843 3.803120 -2.487639
Head -3.074956 3.539238 1.564289
LeftShoulder -0.927661 -2.990126 -0.701495
LeftArm 5.965281 33.808278 -63.569475
LeftForeArm -60.989565 -0.000000 89.732693
LeftHand -13.370558 -0.000000 -32.911899
LeftHandThumb1 -26.253704 0.000000 33.147579
RightShoulder -1.998272 -21.753829 1.027449
RightArm 24.795849 -32.378715 51.913516
RightForeArm -149.281933 -0.000000 30.898791
RightHand -0.842975 -0.000000 -2.586137
RightHandThumb1 -24.326973 -0.000000 -32.862282
LeftUpLeg -6.609466 13.873433 3.552828
LeftLeg 7.855924 -0.000000 -0.000000
LeftFoot -15.896377 3.828627 -20.350365
LeftToeBase 15.013105 -0.000000 -0.000000
RightUpLeg -8.757945 -9.518637 -1.100741
RightLeg 10.409700 -0.000000 -0.000000
RightFoot -14.547697 -3.788912 13.814607
RightToeBase 11.258474 -0.000000 -0.000000
1330
root -0.714728 36.933482 4.235255 7.541303 -0.474609 -0.565480
Spine -3.686708 3.666425 -2.405343
Head -3.075573 3.691721 1.447289
LeftShoulder -0.819402 -3.072257 -0.737785
LeftArm 6.714433 35.807698 -62.878339
LeftForeArm -61.758241 -0.000000 88.340916
LeftHand -14.431233 -0.000000 -33.355742
LeftHandThumb1 -26.253704 0.000000 33.147579
RightShoulder -1.993426 -21.745400 1.025868
RightArm 24.819291 -32.320046 51.891490
RightForeArm -149.217003 -0.000000 30.923664
RightHand -0.829233 -0.000000 -2.598477
RightHandThumb1 -24.326973 -0.000000 -32.862282
LeftUpLeg -6.704391 13.764540 3.512099
LeftLeg 7.860459 -0.000000 -0.000000
LeftFoot -15.867455 3.800692 -20.361075
LeftToeBase 15.027435 -0.000000 -0.000000
RightUpLeg -8.818308 -9.596944 -1.114427
RightLeg 10.433453 -0.000000 -0.000000
RightFoot -14.574645 -3.839540 13.846467
RightToeBase 11.269344 -0.000000 -0.000000
1331
root -0.707071 36.933867 4.222992 7.562617 -0.376669 -0.551121
Spine -3.667282 3.560903 -2.318872
Head -3.073051 3.880617 1.344221
LeftShoulder -0.684813 -3.162778 -0.772540
LeftArm 7.343314 37.886523 -62.151361
LeftForeArm -62.299615 -0.000000 87.135750
LeftHand -14.509614 -0.000000 -33.606232
LeftHandThumb1 -26.253704 0.000000 33.147579
RightShoulder -1.983744 -21.716268 1.024415
RightArm 24.840003 -32.287453 51.859643
RightForeArm -149.145939 -0.000000 30.956691
RightHand -0.841957 -0.000000 -2.582869
RightHandThumb1 -24.326973 -0.000000 -32.862282
LeftUpLeg -6.759479 13.723512 3.482958
LeftLeg 7.850798 -0.000000 -0.000000
LeftFoot -15.820933 3.754839 -20.332049
LeftToeBase 15.014815 -0.000000 -0.000000
RightUpLeg -8.856322 -9.632030 -1.127659
RightLeg 10.453784 -0.000000 -0.000000
RightFoot -14.584258 -3.896030 13.874762
RightToeBase 11.234474 -0.000000 -0.000000
1332
root -0.695935 36.934213 4.211541 7.563899 -0.308439 -0.527941
Spine -3.615522 3.463982 -2.229382
Head -3.090207 4.070336 1.222588
LeftShoulder -0.547734 -3.284396 -0.830072
LeftArm 7.995227 39.843938 -61.445459
LeftForeArm -62.731435 -0.000000 85.952283
LeftHand -14.838903 -0.000000 -34.124182
LeftHandThumb1 -26.253704 0.000000 33.147579
RightShoulder -1.954592 -21.665913 1.011342
RightArm 24.850252 -32.253163 51.829482
RightForeArm -149.078517 -0.000000 30.996430
RightHand -0.906933 -0.000000 -2.660722
RightHandThumb1 -24.326973 -0.000000 -32.862282
LeftUpLeg -6.784136 13.705430 3.444125
LeftLeg 7.833701 -0.000000 -0.000000
LeftFoot -15.783958 3.702400 -20.315894
LeftToeBase 15.038804 -0.000000 -0.000000
RightUpLeg -8.874364 -9.653615 -1.161222
RightLeg 10.468142 -0.000000 -0.000000
RightFoot -14.606447 -3.928559 13.912822
RightToeBase 11.281948 -0.000000 -0.000000
1333
root -0.687045 36.933209 4.199738 7.562614 -0.223830 -0.515633
Spine -3.558926 3.345931 -2.133720
Head -3.138469 4.255155 1.042168
LeftShoulder -0.416561 -3.346327 -0.878035
LeftArm 8.877698 41.885759 -60.653177
LeftForeArm -62.593787 -0.000000 84.708620
LeftHand -13.385063 -0.000000 -34.681279
LeftHandThumb1 -26.253704 0.000000 33.147579
RightShoulder -1.930693 -21.627414 0.985605
RightArm 24.896002 -32.211412 51.828849
RightForeArm -149.048139 -0.000000 31.015926
RightHand -0.932837 0.000000 -2.589947
RightHandThumb1 -24.326973 -0.000000 -32.862282
LeftUpLeg -6.809720 13.665682 3.418764
LeftLeg 7.818503 -0.000000 -0.000000
LeftFoot -15.759945 3.676208 -20.272311
LeftToeBase 15.043996 -0.000000 -0.000000
RightUpLeg -8.890700 -9.678706 -1.181077
RightLeg 10.488521 -0.000000 -0.000000
RightFoot -14.613311 -3.929016 13.925321
RightToeBase 11.298933 -0.000000 -0.000000
